# xmcd
#
# Track frame offsets:
#	183
#	16615
#	50943
#
# Disc length: 901 seconds
# Revision: 0
# Processed by: cddbd v1.5.2PL0 Copyright (c) Steve Scherf et al.
# Submitted via: dBpowerAMP V12.0
#
DISCID=1d038303
DTITLE=Delage - Rock The Boat
DYEAR=1991
DGENRE=House
TTITLE0=Rock The Boat [7” Version]
TTITLE1=Rock The Boat [Extended Mix]
TTITLE2=I Wanna Be Your Everything
EXTD=
EXTT0=
EXTT1=
EXTT2=
PLAYORDER=
